<svg id="e5Hnl2JXdaS1" xmlns="http://www.w3.org/2000/svg" xmlns:xlink="http://www.w3.org/1999/xlink" viewBox="0 0 500 500" shape-rendering="geometricPrecision" text-rendering="geometricPrecision"><defs><radialGradient id="e5Hnl2JXdaS2-fill" cx="0" cy="0" r="0.5" spreadMethod="pad" gradientUnits="objectBoundingBox" gradientTransform="translate(0.5 0.5)"><stop id="e5Hnl2JXdaS2-fill-0" offset="0%" stop-color="#f1e02f"/><stop id="e5Hnl2JXdaS2-fill-1" offset="100%" stop-color="#ef9503"/></radialGradient></defs><ellipse rx="200" ry="200" transform="translate(250 250)" fill="url(#e5Hnl2JXdaS2-fill)" stroke="#000"/><polygon points="-11.094037,-64.238072 4.356813,-31.320111 38.905963,-26.041471 13.905963,-0.418412 19.807662,35.761928 -11.094037,18.679889 -41.995736,35.761928 -36.094037,-0.418412 -61.094037,-26.041471 -26.544887,-31.320111 -11.094037,-64.238072" transform="translate(188.905963 198.030308)" fill="#df0000" stroke-width="0"/><polygon points="-11.094037,-64.238072 4.356813,-31.320111 38.905963,-26.041471 13.905963,-0.418412 19.807662,35.761928 -11.094037,18.679889 -41.995736,35.761928 -36.094037,-0.418412 -61.094037,-26.041471 -26.544887,-31.320111 -11.094037,-64.238072" transform="translate(331.962861 198.030308)" fill="#df0000" stroke-width="0"/><polygon points="-11.094037,-64.238072 4.356813,-31.320111 38.905963,-26.041471 13.905963,-0.418412 19.807662,35.761928 -11.094037,18.679889 -41.995736,35.761928 -36.094037,-0.418412 -61.094037,-26.041471 -26.544887,-31.320111 -11.094037,-64.238072" transform="translate(331.962861 333.77773)" fill="#df0000" stroke-width="0"/><polygon points="-11.094037,-64.238072 4.356813,-31.320111 38.905963,-26.041471 13.905963,-0.418412 19.807662,35.761928 -11.094037,18.679889 -41.995736,35.761928 -36.094037,-0.418412 -61.094037,-26.041471 -26.544887,-31.320111 -11.094037,-64.238072" transform="translate(188.905963 333.77773)" fill="#df0000" stroke-width="0"/><polygon points="-11.094037,-64.238072 4.356813,-31.320111 38.905963,-26.041471 13.905963,-0.418412 19.807662,35.761928 -11.094037,18.679889 -41.995736,35.761928 -36.094037,-0.418412 -61.094037,-26.041471 -26.544887,-31.320111 -11.094037,-64.238072" transform="translate(188.905963 198.030308)" fill="#df0000" stroke-width="0"/></svg>
